  0
SECTION
  2
HEADER
  9
$ACADVER
  1
AC1024
  9
$ACADMAINTVER
 70
6
  9
$DWGCODEPAGE
  3
ANSI_1252
  9
$LASTSAVEDBY
  1
ezdxf
  9
$INSBASE
 10
0.0
 20
0.0
 30
0.0
  9
$EXTMIN
 10
1e+20
 20
1e+20
 30
1e+20
  9
$EXTMAX
 10
-1e+20
 20
-1e+20
 30
-1e+20
  9
$LIMMIN
 10
0.0
 20
0.0
  9
$LIMMAX
 10
420.0
 20
297.0
  9
$ORTHOMODE
 70
0
  9
$REGENMODE
 70
1
  9
$FILLMODE
 70
1
  9
$QTEXTMODE
 70
0
  9
$MIRRTEXT
 70
1
  9
$LTSCALE
 40
1.0
  9
$ATTMODE
 70
1
  9
$TEXTSIZE
 40
2.5
  9
$TRACEWID
 40
1.0
  9
$TEXTSTYLE
  7
Standard
  9
$CLAYER
  8
0
  9
$CELTYPE
  6
ByLayer
  9
$CECOLOR
 62
256
  9
$CELTSCALE
 40
1.0
  9
$DISPSILH
 70
0
  9
$DIMSCALE
 40
1.0
  9
$DIMASZ
 40
2.5
  9
$DIMEXO
 40
0.625
  9
$DIMDLI
 40
3.75
  9
$DIMRND
 40
0.0
  9
$DIMDLE
 40
0.0
  9
$DIMEXE
 40
1.25
  9
$DIMTP
 40
0.0
  9
$DIMTM
 40
0.0
  9
$DIMTXT
 40
2.5
  9
$DIMCEN
 40
2.5
  9
$DIMTSZ
 40
0.0
  9
$DIMTOL
 70
0
  9
$DIMLIM
 70
0
  9
$DIMTIH
 70
0
  9
$DIMTOH
 70
0
  9
$DIMSE1
 70
0
  9
$DIMSE2
 70
0
  9
$DIMTAD
 70
1
  9
$DIMZIN
 70
8
  9
$DIMBLK
  1

  9
$DIMASO
 70
1
  9
$DIMSHO
 70
1
  9
$DIMPOST
  1

  9
$DIMAPOST
  1

  9
$DIMALT
 70
0
  9
$DIMALTD
 70
3
  9
$DIMALTF
 40
0.03937007874
  9
$DIMLFAC
 40
1.0
  9
$DIMTOFL
 70
1
  9
$DIMTVP
 40
0.0
  9
$DIMTIX
 70
0
  9
$DIMSOXD
 70
0
  9
$DIMSAH
 70
0
  9
$DIMBLK1
  1

  9
$DIMBLK2
  1

  9
$DIMSTYLE
  2
ISO-25
  9
$DIMCLRD
 70
0
  9
$DIMCLRE
 70
0
  9
$DIMCLRT
 70
0
  9
$DIMTFAC
 40
1.0
  9
$DIMGAP
 40
0.625
  9
$DIMJUST
 70
0
  9
$DIMSD1
 70
0
  9
$DIMSD2
 70
0
  9
$DIMTOLJ
 70
0
  9
$DIMTZIN
 70
8
  9
$DIMALTZ
 70
0
  9
$DIMALTTZ
 70
0
  9
$DIMUPT
 70
0
  9
$DIMDEC
 70
2
  9
$DIMTDEC
 70
2
  9
$DIMALTU
 70
2
  9
$DIMALTTD
 70
3
  9
$DIMTXSTY
  7
Standard
  9
$DIMAUNIT
 70
0
  9
$DIMADEC
 70
0
  9
$DIMALTRND
 40
0.0
  9
$DIMAZIN
 70
0
  9
$DIMDSEP
 70
44
  9
$DIMATFIT
 70
3
  9
$DIMFRAC
 70
0
  9
$DIMLDRBLK
  1

  9
$DIMLUNIT
 70
2
  9
$DIMLWD
 70
-2
  9
$DIMLWE
 70
-2
  9
$DIMTMOVE
 70
0
  9
$DIMFXL
 40
1.0
  9
$DIMFXLON
 70
0
  9
$DIMJOGANG
 40
0.785398163397
  9
$DIMTFILL
 70
0
  9
$DIMTFILLCLR
 70
0
  9
$DIMARCSYM
 70
0
  9
$DIMLTYPE
  6

  9
$DIMLTEX1
  6

  9
$DIMLTEX2
  6

  9
$DIMTXTDIRECTION
 70
0
  9
$LUNITS
 70
2
  9
$LUPREC
 70
4
  9
$SKETCHINC
 40
1.0
  9
$FILLETRAD
 40
10.0
  9
$AUNITS
 70
0
  9
$AUPREC
 70
2
  9
$MENU
  1
.
  9
$ELEVATION
 40
0.0
  9
$PELEVATION
 40
0.0
  9
$THICKNESS
 40
0.0
  9
$LIMCHECK
 70
0
  9
$CHAMFERA
 40
0.0
  9
$CHAMFERB
 40
0.0
  9
$CHAMFERC
 40
0.0
  9
$CHAMFERD
 40
0.0
  9
$SKPOLY
 70
0
  9
$TDCREATE
 40
2461292.674710648
  9
$TDUCREATE
 40
2458532.153996898
  9
$TDUPDATE
 40
2461292.674710648
  9
$TDUUPDATE
 40
2458532.1544311
  9
$TDINDWG
 40
0.0
  9
$TDUSRTIMER
 40
0.0
  9
$USRTIMER
 70
1
  9
$ANGBASE
 50
0.0
  9
$ANGDIR
 70
0
  9
$PDMODE
 70
0
  9
$PDSIZE
 40
0.0
  9
$PLINEWID
 40
0.0
  9
$SPLFRAME
 70
0
  9
$SPLINETYPE
 70
6
  9
$SPLINESEGS
 70
8
  9
$HANDSEED
  5
63
  9
$SURFTAB1
 70
6
  9
$SURFTAB2
 70
6
  9
$SURFTYPE
 70
6
  9
$SURFU
 70
6
  9
$SURFV
 70
6
  9
$UCSBASE
  2

  9
$UCSNAME
  2

  9
$UCSORG
 10
0.0
 20
0.0
 30
0.0
  9
$UCSXDIR
 10
1.0
 20
0.0
 30
0.0
  9
$UCSYDIR
 10
0.0
 20
1.0
 30
0.0
  9
$UCSORTHOREF
  2

  9
$UCSORTHOVIEW
 70
0
  9
$UCSORGTOP
 10
0.0
 20
0.0
 30
0.0
  9
$UCSORGBOTTOM
 10
0.0
 20
0.0
 30
0.0
  9
$UCSORGLEFT
 10
0.0
 20
0.0
 30
0.0
  9
$UCSORGRIGHT
 10
0.0
 20
0.0
 30
0.0
  9
$UCSORGFRONT
 10
0.0
 20
0.0
 30
0.0
  9
$UCSORGBACK
 10
0.0
 20
0.0
 30
0.0
  9
$PUCSBASE
  2

  9
$PUCSNAME
  2

  9
$PUCSORG
 10
0.0
 20
0.0
 30
0.0
  9
$PUCSXDIR
 10
1.0
 20
0.0
 30
0.0
  9
$PUCSYDIR
 10
0.0
 20
1.0
 30
0.0
  9
$PUCSORTHOREF
  2

  9
$PUCSORTHOVIEW
 70
0
  9
$PUCSORGTOP
 10
0.0
 20
0.0
 30
0.0
  9
$PUCSORGBOTTOM
 10
0.0
 20
0.0
 30
0.0
  9
$PUCSORGLEFT
 10
0.0
 20
0.0
 30
0.0
  9
$PUCSORGRIGHT
 10
0.0
 20
0.0
 30
0.0
  9
$PUCSORGFRONT
 10
0.0
 20
0.0
 30
0.0
  9
$PUCSORGBACK
 10
0.0
 20
0.0
 30
0.0
  9
$USERI1
 70
0
  9
$USERI2
 70
0
  9
$USERI3
 70
0
  9
$USERI4
 70
0
  9
$USERI5
 70
0
  9
$USERR1
 40
0.0
  9
$USERR2
 40
0.0
  9
$USERR3
 40
0.0
  9
$USERR4
 40
0.0
  9
$USERR5
 40
0.0
  9
$WORLDVIEW
 70
1
  9
$SHADEDGE
 70
3
  9
$SHADEDIF
 70
70
  9
$TILEMODE
 70
1
  9
$MAXACTVP
 70
64
  9
$PINSBASE
 10
0.0
 20
0.0
 30
0.0
  9
$PLIMCHECK
 70
0
  9
$PEXTMIN
 10
1e+20
 20
1e+20
 30
1e+20
  9
$PEXTMAX
 10
-1e+20
 20
-1e+20
 30
-1e+20
  9
$PLIMMIN
 10
0.0
 20
0.0
  9
$PLIMMAX
 10
420.0
 20
297.0
  9
$UNITMODE
 70
0
  9
$VISRETAIN
 70
1
  9
$PLINEGEN
 70
0
  9
$PSLTSCALE
 70
1
  9
$TREEDEPTH
 70
3020
  9
$CMLSTYLE
  2
Standard
  9
$CMLJUST
 70
0
  9
$CMLSCALE
 40
20.0
  9
$PROXYGRAPHICS
 70
1
  9
$MEASUREMENT
 70
1
  9
$CELWEIGHT
370
-1
  9
$ENDCAPS
280
0
  9
$JOINSTYLE
280
0
  9
$LWDISPLAY
290
0
  9
$INSUNITS
 70
6
  9
$HYPERLINKBASE
  1

  9
$STYLESHEET
  1

  9
$XEDIT
290
1
  9
$CEPSNTYPE
380
0
  9
$PSTYLEMODE
290
1
  9
$FINGERPRINTGUID
  2
{41EECF99-FE59-4A3A-A065-133D511AEBA1}
  9
$VERSIONGUID
  2
{D67B9228-B466-42B7-8E53-04E68AECDC25}
  9
$EXTNAMES
290
1
  9
$PSVPSCALE
 40
0.0
  9
$OLESTARTUP
290
0
  9
$SORTENTS
280
127
  9
$INDEXCTL
280
0
  9
$HIDETEXT
280
1
  9
$XCLIPFRAME
280
1
  9
$HALOGAP
280
0
  9
$OBSCOLOR
 70
257
  9
$OBSLTYPE
280
0
  9
$INTERSECTIONDISPLAY
280
0
  9
$INTERSECTIONCOLOR
 70
257
  9
$DIMASSOC
280
2
  9
$PROJECTNAME
  1

  9
$CAMERADISPLAY
290
0
  9
$LENSLENGTH
 40
50.0
  9
$CAMERAHEIGHT
 40
0.0
  9
$STEPSPERSEC
 40
24.0
  9
$STEPSIZE
 40
100.0
  9
$3DDWFPREC
 40
2.0
  9
$PSOLWIDTH
 40
0.005
  9
$PSOLHEIGHT
 40
0.08
  9
$LOFTANG1
 40
1.570796326795
  9
$LOFTANG2
 40
1.570796326795
  9
$LOFTMAG1
 40
0.0
  9
$LOFTMAG2
 40
0.0
  9
$LOFTPARAM
 70
7
  9
$LOFTNORMALS
280
1
  9
$LATITUDE
 40
37.795
  9
$LONGITUDE
 40
-122.394
  9
$NORTHDIRECTION
 40
0.0
  9
$TIMEZONE
 70
-8000
  9
$LIGHTGLYPHDISPLAY
280
1
  9
$TILEMODELIGHTSYNCH
280
1
  9
$CMATERIAL
347
20
  9
$SOLIDHIST
280
0
  9
$SHOWHIST
280
1
  9
$DWFFRAME
280
2
  9
$DGNFRAME
280
2
  9
$REALWORLDSCALE
290
1
  9
$INTERFERECOLOR
 62
256
  9
$CSHADOW
280
0
  9
$SHADOWPLANELOCATION
 40
0.0
  0
ENDSEC
  0
SECTION
  2
CLASSES
  0
CLASS
  1
ACDBDICTIONARYWDFLT
  2
AcDbDictionaryWithDefault
  3
ObjectDBX Classes
 90
0
 91
0
280
0
281
0
  0
CLASS
  1
SUN
  2
AcDbSun
  3
SCENEOE
 90
1153
 91
0
280
0
281
0
  0
CLASS
  1
VISUALSTYLE
  2
AcDbVisualStyle
  3
ObjectDBX Classes
 90
4095
 91
0
280
0
281
0
  0
CLASS
  1
MATERIAL
  2
AcDbMaterial
  3
ObjectDBX Classes
 90
1153
 91
0
280
0
281
0
  0
CLASS
  1
SCALE
  2
AcDbScale
  3
ObjectDBX Classes
 90
1153
 91
0
280
0
281
0
  0
CLASS
  1
TABLESTYLE
  2
AcDbTableStyle
  3
ObjectDBX Classes
 90
4095
 91
0
280
0
281
0
  0
CLASS
  1
MLEADERSTYLE
  2
AcDbMLeaderStyle
  3
ACDB_MLEADERSTYLE_CLASS
 90
4095
 91
0
280
0
281
0
  0
CLASS
  1
DICTIONARYVAR
  2
AcDbDictionaryVar
  3
ObjectDBX Classes
 90
0
 91
0
280
0
281
0
  0
CLASS
  1
CELLSTYLEMAP
  2
AcDbCellStyleMap
  3
ObjectDBX Classes
 90
1152
 91
0
280
0
281
0
  0
CLASS
  1
MENTALRAYRENDERSETTINGS
  2
AcDbMentalRayRenderSettings
  3
SCENEOE
 90
1024
 91
0
280
0
281
0
  0
CLASS
  1
ACDBDETAILVIEWSTYLE
  2
AcDbDetailViewStyle
  3
ObjectDBX Classes
 90
1025
 91
0
280
0
281
0
  0
CLASS
  1
ACDBSECTIONVIEWSTYLE
  2
AcDbSectionViewStyle
  3
ObjectDBX Classes
 90
1025
 91
0
280
0
281
0
  0
CLASS
  1
RASTERVARIABLES
  2
AcDbRasterVariables
  3
ISM
 90
0
 91
0
280
0
281
0
  0
CLASS
  1
ACDBPLACEHOLDER
  2
AcDbPlaceHolder
  3
ObjectDBX Classes
 90
0
 91
0
280
0
281
0
  0
CLASS
  1
LAYOUT
  2
AcDbLayout
  3
ObjectDBX Classes
 90
0
 91
0
280
0
281
0
  0
ENDSEC
  0
SECTION
  2
TABLES
  0
TABLE
  2
VPORT
  5
8
330
0
100
AcDbSymbolTable
 70
1
  0
VPORT
  5
23
330
8
100
AcDbSymbolTableRecord
100
AcDbViewportTableRecord
  2
*Active
 70
0
 10
0.0
 20
0.0
 11
1.0
 21
1.0
 12
0.0
 22
0.0
 13
0.0
 23
0.0
 14
0.5
 24
0.5
 15
0.5
 25
0.5
 16
0.0
 26
0.0
 36
1.0
 17
0.0
 27
0.0
 37
0.0
 40
1000.0
 41
1.34
 42
50.0
 43
0.0
 44
0.0
 50
0.0
 51
0.0
 71
0
 72
1000
 73
1
 74
3
 75
0
 76
0
 77
0
 78
0
281
0
 65
0
146
0.0
  0
ENDTAB
  0
TABLE
  2
LTYPE
  5
2
330
0
100
AcDbSymbolTable
 70
3
  0
LTYPE
  5
24
330
2
100
AcDbSymbolTableRecord
100
AcDbLinetypeTableRecord
  2
ByBlock
 70
0
  3

 72
65
 73
0
 40
0.0
  0
LTYPE
  5
25
330
2
100
AcDbSymbolTableRecord
100
AcDbLinetypeTableRecord
  2
ByLayer
 70
0
  3

 72
65
 73
0
 40
0.0
  0
LTYPE
  5
26
330
2
100
AcDbSymbolTableRecord
100
AcDbLinetypeTableRecord
  2
Continuous
 70
0
  3

 72
65
 73
0
 40
0.0
  0
ENDTAB
  0
TABLE
  2
LAYER
  5
1
330
0
100
AcDbSymbolTable
 70
3
  0
LAYER
  5
27
330
1
100
AcDbSymbolTableRecord
100
AcDbLayerTableRecord
  2
0
 70
0
 62
7
  6
Continuous
370
-3
390
13
347
21
  0
LAYER
  5
28
330
1
100
AcDbSymbolTableRecord
100
AcDbLayerTableRecord
  2
Defpoints
 70
0
 62
7
  6
Continuous
290
0
370
-3
390
13
347
21
  0
LAYER
  5
2F
330
1
100
AcDbSymbolTableRecord
100
AcDbLayerTableRecord
  2
00 areas
 70
0
 62
7
  6
Continuous
370
-3
390
13
347
21
  0
ENDTAB
  0
TABLE
  2
STYLE
  5
5
330
0
100
AcDbSymbolTable
 70
1
  0
STYLE
  5
29
330
5
100
AcDbSymbolTableRecord
100
AcDbTextStyleTableRecord
  2
Standard
 70
0
 40
0.0
 41
1.0
 50
0.0
 71
0
 42
2.5
  3
txt
  4

  0
ENDTAB
  0
TABLE
  2
VIEW
  5
7
330
0
100
AcDbSymbolTable
 70
0
  0
ENDTAB
  0
TABLE
  2
UCS
  5
6
330
0
100
AcDbSymbolTable
 70
0
  0
ENDTAB
  0
TABLE
  2
APPID
  5
3
330
0
100
AcDbSymbolTable
 70
3
  0
APPID
  5
2A
330
3
100
AcDbSymbolTableRecord
100
AcDbRegAppTableRecord
  2
ACAD
 70
0
  0
APPID
  5
60
330
3
100
AcDbSymbolTableRecord
100
AcDbRegAppTableRecord
  2
HATCHBACKGROUNDCOLOR
 70
0
  0
APPID
  5
61
330
3
100
AcDbSymbolTableRecord
100
AcDbRegAppTableRecord
  2
EZDXF
 70
0
  0
ENDTAB
  0
TABLE
  2
DIMSTYLE
  5
4
330
0
100
AcDbSymbolTable
 70
1
100
AcDbDimStyleTable
  0
DIMSTYLE
105
2B
330
4
100
AcDbSymbolTableRecord
100
AcDbDimStyleTableRecord
  2
Standard
 70
0
 40
1.0
 41
2.5
 42
0.625
 43
3.75
 44
1.25
 45
0.0
 46
0.0
 47
0.0
 48
0.0
 49
2.5
140
2.5
141
2.5
142
0.0
143
0.03937007874
144
1.0
145
0.0
146
1.0
147
0.625
148
0.0
 69
0
 70
0
 71
0
 72
0
 73
0
 74
0
 75
0
 76
0
 77
1
 78
8
 79
3
170
0
171
3
172
1
173
0
174
0
175
0
176
0
177
0
178
0
179
2
271
2
272
2
273
2
274
3
275
0
276
0
277
2
278
44
279
0
280
0
281
0
282
0
283
0
284
8
285
0
286
0
288
0
289
3
290
0
371
-2
372
-2
  0
ENDTAB
  0
TABLE
  2
BLOCK_RECORD
  5
9
330
0
100
AcDbSymbolTable
 70
2
  0
BLOCK_RECORD
  5
17
330
9
100
AcDbSymbolTableRecord
100
AcDbBlockTableRecord
  2
*Model_Space
340
1A
 70
0
280
1
281
0
  0
BLOCK_RECORD
  5
1B
330
9
100
AcDbSymbolTableRecord
100
AcDbBlockTableRecord
  2
*Paper_Space
340
1E
 70
0
280
1
281
0
  0
ENDTAB
  0
ENDSEC
  0
SECTION
  2
BLOCKS
  0
BLOCK
  5
18
330
17
100
AcDbEntity
  8
0
100
AcDbBlockBegin
  2
*Model_Space
 70
0
 10
0.0
 20
0.0
 30
0.0
  3
*Model_Space
  1

  0
ENDBLK
  5
19
330
17
100
AcDbEntity
  8
0
100
AcDbBlockEnd
  0
BLOCK
  5
1C
330
1B
100
AcDbEntity
  8
0
100
AcDbBlockBegin
  2
*Paper_Space
 70
0
 10
0.0
 20
0.0
 30
0.0
  3
*Paper_Space
  1

  0
ENDBLK
  5
1D
330
1B
100
AcDbEntity
  8
0
100
AcDbBlockEnd
  0
ENDSEC
  0
SECTION
  2
ENTITIES
  0
LWPOLYLINE
  5
30
330
17
100
AcDbEntity
  8
00 areas
100
AcDbPolyline
 90
16
 70
1
 10
-573.2138
 20
-300.194
 10
-573.214
 20
-298.7021
 10
-573.2036
 20
-298.7021
 10
-573.2036
 20
-295.7728
 10
-572.8979
 20
-295.773
 10
-572.8988
 20
-294.8198
 10
-573.2032
 20
-294.8197
 10
-573.2032
 20
-293.6169
 10
-574.3035
 20
-293.6169
 10
-574.3038
 20
-296.873
 10
-578.6379
 20
-296.873
 10
-578.6362
 20
-297.742
 10
-578.6384
 20
-297.742
 10
-578.6384
 20
-300.184
 10
-578.0707
 20
-300.184
 10
-578.0707
 20
-300.194
  0
MTEXT
  5
31
330
17
100
AcDbEntity
  8
00 areas
100
AcDbMText
 10
-575.9203
 20
-297.3075
 30
0.0
 40
2.5
 71
1
  1
Salón/cocina
  0
LWPOLYLINE
  5
32
330
17
100
AcDbEntity
  8
00 areas
100
AcDbPolyline
 90
14
 70
1
 10
-556.1782
 20
-293.6064
 10
-554.9882
 20
-293.6067
 10
-554.9882
 20
-296.4552
 10
-551.2591
 20
-296.4552
 10
-551.2587
 20
-297.544
 10
-550.7539
 20
-297.5434
 10
-550.7539
 20
-299.6491
 10
-550.7541
 20
-299.6491
 10
-550.7539
 20
-300.1868
 10
-556.1863
 20
-300.1868
 10
-556.1764
 20
-297.0984
 10
-556.4849
 20
-297.0975
 10
-556.4849
 20
-296.1442
 10
-556.1781
 20
-296.1452
  0
MTEXT
  5
33
330
17
100
AcDbEntity
  8
00 areas
100
AcDbMText
 10
-553.8719
 20
-296.7763
 30
0.0
 40
2.5
 71
1
  1
Salón/cocina
  0
LWPOLYLINE
  5
34
330
17
100
AcDbEntity
  8
00 areas
100
AcDbPolyline
 90
16
 70
1
 10
-530.6988
 20
-292.3886
 10
-531.5974
 20
-292.3886
 10
-531.5974
 20
-295.6441
 10
-531.7972
 20
-295.6441
 10
-531.7972
 20
-296.4551
 10
-535.6275
 20
-296.4532
 10
-535.6275
 20
-297.5284
 10
-536.1321
 20
-297.5284
 10
-536.1308
 20
-299.6489
 10
-536.132
 20
-299.6491
 10
-536.132
 20
-300.1849
 10
-530.6949
 20
-300.1848
 10
-530.6949
 20
-297.0974
 10
-530.3895
 20
-297.0962
 10
-530.3916
 20
-296.1437
 10
-530.6976
 20
-296.1443
  0
MTEXT
  5
35
330
17
100
AcDbEntity
  8
00 areas
100
AcDbMText
 10
-531.0942
 20
-296.2988
 30
0.0
 40
2.5
 71
1
  1
Salón/cocina
  0
LWPOLYLINE
  5
36
330
17
100
AcDbEntity
  8
00 areas
100
AcDbPolyline
 90
14
 70
1
 10
-575.9382
 20
-290.3119
 10
-575.9382
 20
-293.5169
 10
-577.2332
 20
-293.5169
 10
-577.2332
 20
-296.773
 10
-578.703
 20
-296.773
 10
-578.703
 20
-295.5666
 10
-578.1334
 20
-295.5666
 10
-578.1334
 20
-294.3887
 10
-578.703
 20
-294.3887
 10
-578.703
 20
-293.6169
 10
-578.1332
 20
-293.6169
 10
-578.1332
 20
-293.5169
 10
-578.6422
 20
-293.5169
 10
-578.6422
 20
-290.3119
  0
MTEXT
  5
37
330
17
100
AcDbEntity
  8
00 areas
100
AcDbMText
 10
-577.6832
 20
-293.5669
 30
0.0
 40
2.5
 71
1
  1
Dormitorio 1
  0
LWPOLYLINE
  5
38
330
17
100
AcDbEntity
  8
00 areas
100
AcDbPolyline
 90
20
 70
1
 10
-550.6991
 20
-290.3051
 10
-553.4941
 20
-290.3061
 10
-553.4941
 20
-293.5067
 10
-552.3584
 20
-293.5061
 10
-552.3584
 20
-293.6066
 10
-552.9584
 20
-293.6061
 10
-552.9584
 20
-296.3552
 10
-552.3734
 20
-296.3552
 10
-552.2439
 20
-296.3552
 10
-551.4789
 20
-296.3552
 10
-551.2212
 20
-296.3552
 10
-550.7541
 20
-296.3552
 10
-550.7541
 20
-293.6061
 10
-551.3541
 20
-293.6061
 10
-551.3541
 20
-293.5051
 10
-550.6991
 20
-293.5051
 10
-550.6991
 20
-291.8352
 10
-550.7542
 20
-291.8352
 10
-550.7542
 20
-291.2352
 10
-550.6991
 20
-291.2352
  0
MTEXT
  5
39
330
17
100
AcDbEntity
  8
00 areas
100
AcDbMText
 10
-552.0966
 20
-292.6701
 30
0.0
 40
2.5
 71
1
  1
Dormitorio 1
  0
LWPOLYLINE
  5
3A
330
17
100
AcDbEntity
  8
00 areas
100
AcDbPolyline
 90
18
 70
1
 10
-533.422
 20
-290.3051
 10
-536.132
 20
-290.3051
 10
-536.132
 20
-293.3551
 10
-535.6323
 20
-293.3551
 10
-535.6323
 20
-293.4551
 10
-536.187
 20
-293.4551
 10
-536.187
 20
-294.2491
 10
-536.132
 20
-294.2491
 10
-536.132
 20
-295.0491
 10
-536.187
 20
-295.0491
 10
-536.187
 20
-296.3505
 10
-535.6325
 20
-296.3505
 10
-535.6325
 20
-296.3532
 10
-534.7325
 20
-296.3532
 10
-534.7325
 20
-296.3591
 10
-534.7323
 20
-296.3591
 10
-534.7323
 20
-293.3551
 10
-533.422
 20
-293.3551
  0
MTEXT
  5
3B
330
17
100
AcDbEntity
  8
00 areas
100
AcDbMText
 10
-534.777
 20
-291.8301
 30
0.0
 40
2.5
 71
1
  1
Dormitorio 1
  0
LWPOLYLINE
  5
3C
330
17
100
AcDbEntity
  8
00 areas
100
AcDbPolyline
 90
8
 70
1
 10
-573.173
 20
-290.3119
 10
-573.173
 20
-293.5169
 10
-574.3984
 20
-293.5175
 10
-574.3984
 20
-292.9175
 10
-574.498
 20
-292.9169
 10
-574.498
 20
-293.5169
 10
-575.8382
 20
-293.5169
 10
-575.8382
 20
-290.3119
  0
MTEXT
  5
3D
330
17
100
AcDbEntity
  8
00 areas
100
AcDbMText
 10
-574.5056
 20
-291.6144
 30
0.0
 40
2.5
 71
1
  1
Dormitorio 2
  0
LWPOLYLINE
  5
3E
330
17
100
AcDbEntity
  8
00 areas
100
AcDbPolyline
 90
8
 70
1
 10
-553.5929
 20
-290.3051
 10
-556.2191
 20
-290.3051
 10
-556.2191
 20
-293.5051
 10
-555.0489
 20
-293.5051
 10
-555.0489
 20
-292.9051
 10
-554.9489
 20
-292.9051
 10
-554.9489
 20
-293.5051
 10
-553.5929
 20
-293.5051
  0
MTEXT
  5
3F
330
17
100
AcDbEntity
  8
00 areas
100
AcDbMText
 10
-554.906
 20
-291.6051
 30
0.0
 40
2.5
 71
1
  1
Dormitorio 2
  0
LWPOLYLINE
  5
40
330
17
100
AcDbEntity
  8
00 areas
100
AcDbPolyline
 90
14
 70
1
 10
-569.928
 20
-298.6602
 10
-569.928
 20
-299.568
 10
-569.9982
 20
-299.568
 10
-569.9982
 20
-300.168
 10
-569.928
 20
-300.168
 10
-569.928
 20
-301.6127
 10
-572.7374
 20
-301.6115
 10
-572.7374
 20
-299.568
 10
-573.1138
 20
-299.568
 10
-573.1138
 20
-298.659
 10
-571.8282
 20
-298.6602
 10
-571.8282
 20
-299.2602
 10
-571.728
 20
-299.259
 10
-571.728
 20
-298.659
  0
MTEXT
  5
41
330
17
100
AcDbEntity
  8
00 areas
100
AcDbMText
 10
-571.3678
 20
-299.868
 30
0.0
 40
2.5
 71
1
  1
Dormitorio 3
  0
LWPOLYLINE
  5
42
330
17
100
AcDbEntity
  8
00 areas
100
AcDbPolyline
 90
12
 70
1
 10
-530.487
 20
-290.3051
 10
-533.3222
 20
-290.3041
 10
-533.3223
 20
-292.2886
 10
-532.7575
 20
-292.2886
 10
-532.7574
 20
-292.3841
 10
-533.3222
 20
-292.3841
 10
-533.3222
 20
-293.3551
 10
-531.6974
 20
-293.3551
 10
-531.6974
 20
-292.2901
 10
-530.6624
 20
-292.2901
 10
-530.6624
 20
-291.4986
 10
-530.487
 20
-291.4986
  0
MTEXT
  5
43
330
17
100
AcDbEntity
  8
00 areas
100
AcDbMText
 10
-531.9923
 20
-291.8936
 30
0.0
 40
2.5
 71
1
  1
Dormitorio 2
  0
LWPOLYLINE
  5
44
330
17
100
AcDbEntity
  8
00 areas
100
AcDbPolyline
 90
13
 70
1
 10
-527.4973
 20
-292.8111
 10
-528.0974
 20
-292.8111
 10
-528.0974
 20
-292.7124
 10
-527.5272
 20
-292.7124
 10
-527.5272
 20
-290.3051
 10
-530.3871
 20
-290.3051
 10
-530.3873
 20
-291.7486
 10
-530.2423
 20
-291.7486
 10
-530.2317
 20
-292.3886
 10
-530.5976
 20
-292.3886
 10
-530.5976
 20
-293.2562
 10
-527.5272
 20
-293.2581
 10
-527.5272
 20
-292.8111
  0
MTEXT
  5
45
330
17
100
AcDbEntity
  8
00 areas
100
AcDbMText
 10
-528.8821
 20
-292.0686
 30
0.0
 40
2.5
 71
1
  1
Dormitorio 3
  0
LWPOLYLINE
  5
46
330
17
100
AcDbEntity
  8
00 areas
100
AcDbPolyline
 90
8
 70
1
 10
-578.639
 20
-301.8955
 10
-575.7926
 20
-301.8994
 10
-575.7895
 20
-300.4946
 10
-577.103
 20
-300.4911
 10
-577.103
 20
-300.2473
 10
-578.003
 20
-300.2473
 10
-578.003
 20
-300.4934
 10
-578.6379
 20
-300.493
  0
MTEXT
  5
47
330
17
100
AcDbEntity
  8
00 areas
100
AcDbMText
 10
-577.2147
 20
-301.1951
 30
0.0
 40
2.5
 71
1
  1
Tendedero
  0
LWPOLYLINE
  5
48
330
17
100
AcDbEntity
  8
00 areas
100
AcDbPolyline
 90
8
 70
1
 10
-553.6041
 20
-300.4872
 10
-553.601
 20
-301.8898
 10
-550.7531
 20
-301.8859
 10
-550.7519
 20
-300.4855
 10
-551.3891
 20
-300.4855
 10
-551.3891
 20
-300.2502
 10
-552.2891
 20
-300.2502
 10
-552.2891
 20
-300.4838
  0
MTEXT
  5
49
330
17
100
AcDbEntity
  8
00 areas
100
AcDbMText
 10
-552.1775
 20
-301.1866
 30
0.0
 40
2.5
 71
1
  1
Tendedero
  0
LWPOLYLINE
  5
4A
330
17
100
AcDbEntity
  8
00 areas
100
AcDbPolyline
 90
8
 70
1
 10
-536.1319
 20
-300.487
 10
-536.133
 20
-301.8827
 10
-533.285
 20
-301.8866
 10
-533.285
 20
-300.4847
 10
-534.5969
 20
-300.4847
 10
-534.5969
 20
-300.2491
 10
-535.4969
 20
-300.2491
 10
-535.4969
 20
-300.4831
  0
MTEXT
  5
4B
330
17
100
AcDbEntity
  8
00 areas
100
AcDbMText
 10
-534.7087
 20
-301.1849
 30
0.0
 40
2.5
 71
1
  1
Tendedero
  0
LWPOLYLINE
  5
4C
330
17
100
AcDbEntity
  8
00 areas
100
AcDbPolyline
 90
10
 70
1
 10
-577.0982
 20
-293.6519
 10
-575.863
 20
-293.6519
 10
-575.863
 20
-295.448
 10
-576.4432
 20
-295.448
 10
-576.4432
 20
-296.7369
 10
-577.0982
 20
-296.7391
 10
-577.0982
 20
-294.6555
 10
-577.198
 20
-294.6555
 10
-577.198
 20
-293.9305
 10
-577.0982
 20
-293.9305
  0
MTEXT
  5
4D
330
17
100
AcDbEntity
  8
00 areas
100
AcDbMText
 10
-576.4806
 20
-295.0518
 30
0.0
 40
2.5
 71
1
  1
Aseo
  0
LWPOLYLINE
  5
4E
330
17
100
AcDbEntity
  8
00 areas
100
AcDbPolyline
 90
8
 70
1
 10
-575.7133
 20
-293.6519
 10
-575.713
 20
-296.738
 10
-574.4387
 20
-296.738
 10
-574.4387
 20
-294.6555
 10
-574.3382
 20
-294.6555
 10
-574.3382
 20
-293.9305
 10
-574.4385
 20
-293.9305
 10
-574.4385
 20
-293.6519
  0
MTEXT
  5
4F
330
17
100
AcDbEntity
  8
00 areas
100
AcDbMText
 10
-575.0759
 20
-295.6968
 30
0.0
 40
2.5
 71
1
  1
Baño
  0
LWPOLYLINE
  5
50
330
17
100
AcDbEntity
  8
00 areas
100
AcDbPolyline
 90
10
 70
1
 10
-553.6835
 20
-296.3202
 10
-553.6835
 20
-295.3302
 10
-553.1086
 20
-295.3302
 10
-553.1085
 20
-293.6411
 10
-554.8532
 20
-293.6411
 10
-554.8534
 20
-293.7767
 10
-554.9532
 20
-293.7767
 10
-554.9532
 20
-294.5017
 10
-554.8534
 20
-294.5017
 10
-554.8534
 20
-296.3202
  0
MTEXT
  5
51
330
17
100
AcDbEntity
  8
00 areas
100
AcDbMText
 10
-553.981
 20
-294.9159
 30
0.0
 40
2.5
 71
1
  1
Baño
  0
LWPOLYLINE
  5
52
330
17
100
AcDbEntity
  8
00 areas
100
AcDbPolyline
 90
10
 70
1
 10
-533.1972
 20
-296.3182
 10
-533.1972
 20
-293.4882
 10
-531.7323
 20
-293.4887
 10
-531.7323
 20
-293.7856
 10
-531.6325
 20
-293.7851
 10
-531.6323
 20
-294.5102
 10
-531.7324
 20
-294.5102
 10
-531.7324
 20
-295.5091
 10
-531.932
 20
-295.5091
 10
-531.932
 20
-296.3182
  0
MTEXT
  5
53
330
17
100
AcDbEntity
  8
00 areas
100
AcDbMText
 10
-532.4648
 20
-295.0096
 30
0.0
 40
2.5
 71
1
  1
Baño
  0
LWPOLYLINE
  5
54
330
17
100
AcDbEntity
  8
00 areas
100
AcDbPolyline
 90
11
 70
1
 10
-534.6969
 20
-293.7852
 10
-534.6969
 20
-293.7852
 10
-534.6973
 20
-294.5119
 10
-534.5975
 20
-294.5102
 10
-534.5975
 20
-296.3182
 10
-533.9372
 20
-296.3182
 10
-533.9372
 20
-295.3291
 10
-533.3472
 20
-295.3291
 10
-533.3472
 20
-293.4882
 10
-534.5975
 20
-293.4882
 10
-534.5975
 20
-293.7852
  0
MTEXT
  5
55
330
17
100
AcDbEntity
  8
00 areas
100
AcDbMText
 10
-533.9724
 20
-294.9205
 30
0.0
 40
2.5
 71
1
  1
Aseo
  0
LWPOLYLINE
  5
56
330
17
100
AcDbEntity
  8
00 areas
100
AcDbPolyline
 90
10
 70
1
 10
-574.138
 20
-300.2432
 10
-575.108
 20
-300.2432
 10
-575.108
 20
-300.4928
 10
-575.6893
 20
-300.4916
 10
-575.6893
 20
-301.6779
 10
-573.0869
 20
-301.6778
 10
-573.089
 20
-300.8682
 10
-573.089
 20
-300.868
 10
-573.089
 20
-300.4927
 10
-574.138
 20
-300.4929
  0
MTEXT
  5
57
330
17
100
AcDbEntity
  8
00 areas
100
AcDbMText
 10
-574.3886
 20
-301.273
 30
0.0
 40
2.5
 71
1
  1
Terraza
  0
LWPOLYLINE
  5
58
330
17
100
AcDbEntity
  8
00 areas
100
AcDbPolyline
 90
8
 70
1
 10
-553.7015
 20
-301.6735
 10
-556.246
 20
-301.6703
 10
-556.2443
 20
-300.4858
 10
-555.7359
 20
-300.4858
 10
-555.7359
 20
-300.2355
 10
-554.766
 20
-300.2355
 10
-554.7659
 20
-300.4867
 10
-553.704
 20
-300.4864
  0
MTEXT
  5
59
330
17
100
AcDbEntity
  8
00 areas
100
AcDbMText
 10
-554.974
 20
-301.0785
 30
0.0
 40
2.5
 71
1
  1
Terraza
  0
LWPOLYLINE
  5
5A
330
17
100
AcDbEntity
  8
00 areas
100
AcDbPolyline
 90
8
 70
1
 10
-533.1852
 20
-300.4847
 10
-532.6019
 20
-300.4848
 10
-532.6019
 20
-300.2348
 10
-531.6319
 20
-300.2348
 10
-531.6319
 20
-300.4848
 10
-530.6474
 20
-300.485
 10
-530.6457
 20
-301.6697
 10
-533.1852
 20
-301.6697
  0
MTEXT
  5
5B
330
17
100
AcDbEntity
  8
00 areas
100
AcDbMText
 10
-531.9159
 20
-301.0773
 30
0.0
 40
2.5
 71
1
  1
Terraza
  0
MTEXT
  5
5C
330
17
100
AcDbEntity
  8
00 areas
100
AcDbMText
 10
-31.5436
 20
1039.8644
 30
0.0
 40
2.5
 71
1
  1
VT22/1
  0
MTEXT
  5
5D
330
17
100
AcDbEntity
  8
00 areas
100
AcDbMText
 10
-572.2708
 20
-295.3497
 30
0.0
 40
2.5
 71
1
  1
VT1/3
  0
MTEXT
  5
5E
330
17
100
AcDbEntity
  8
00 areas
100
AcDbMText
 10
-557.4155
 20
-296.5512
 30
0.0
 40
2.5
 71
1
  1
VT2/2
  0
MTEXT
  5
5F
330
17
100
AcDbEntity
  8
00 areas
100
AcDbMText
 10
-529.6239
 20
-296.6579
 30
0.0
 40
2.5
 71
1
  1
VT3/3
  0
ENDSEC
  0
SECTION
  2
OBJECTS
  0
DICTIONARY
  5
A
330
0
100
AcDbDictionary
281
1
  3
ACAD_COLOR
350
B
  3
ACAD_GROUP
350
C
  3
ACAD_LAYOUT
350
D
  3
ACAD_MATERIAL
350
E
  3
ACAD_MLEADERSTYLE
350
F
  3
ACAD_MLINESTYLE
350
10
  3
ACAD_PLOTSETTINGS
350
11
  3
ACAD_PLOTSTYLENAME
350
12
  3
ACAD_SCALELIST
350
14
  3
ACAD_TABLESTYLE
350
15
  3
ACAD_VISUALSTYLE
350
16
  3
EZDXF_META
350
2D
  0
DICTIONARY
  5
B
330
A
100
AcDbDictionary
281
1
  0
DICTIONARY
  5
C
330
A
100
AcDbDictionary
281
1
  0
DICTIONARY
  5
D
330
A
100
AcDbDictionary
281
1
  3
Model
350
1A
  3
Layout1
350
1E
  0
DICTIONARY
  5
E
330
A
100
AcDbDictionary
281
1
  3
ByBlock
350
1F
  3
ByLayer
350
20
  3
Global
350
21
  0
DICTIONARY
  5
F
330
A
100
AcDbDictionary
281
1
  3
Standard
350
2C
  0
DICTIONARY
  5
10
330
A
100
AcDbDictionary
281
1
  3
Standard
350
22
  0
DICTIONARY
  5
11
330
A
100
AcDbDictionary
281
1
  0
ACDBDICTIONARYWDFLT
  5
12
330
A
100
AcDbDictionary
281
1
  3
Normal
350
13
100
AcDbDictionaryWithDefault
340
13
  0
ACDBPLACEHOLDER
  5
13
330
12
  0
DICTIONARY
  5
14
330
A
100
AcDbDictionary
281
1
  0
DICTIONARY
  5
15
330
A
100
AcDbDictionary
281
1
  0
DICTIONARY
  5
16
330
A
100
AcDbDictionary
281
1
  0
LAYOUT
  5
1A
330
D
100
AcDbPlotSettings
  1

  4
A3
  6

 40
7.5
 41
20.0
 42
7.5
 43
20.0
 44
420.0
 45
297.0
 46
0.0
 47
0.0
 48
0.0
 49
0.0
140
0.0
141
0.0
142
1.0
143
1.0
 70
1024
 72
1
 73
0
 74
5
  7

 75
16
 76
0
 77
2
 78
300
147
1.0
148
0.0
149
0.0
100
AcDbLayout
  1
Model
 70
1
 71
0
 10
0.0
 20
0.0
 11
420.0
 21
297.0
 12
0.0
 22
0.0
 32
0.0
 14
1e+20
 24
1e+20
 34
1e+20
 15
-1e+20
 25
-1e+20
 35
-1e+20
146
0.0
 13
0.0
 23
0.0
 33
0.0
 16
1.0
 26
0.0
 36
0.0
 17
0.0
 27
1.0
 37
0.0
 76
1
330
17
  0
LAYOUT
  5
1E
330
D
100
AcDbPlotSettings
  1

  4
A3
  6

 40
7.5
 41
20.0
 42
7.5
 43
20.0
 44
420.0
 45
297.0
 46
0.0
 47
0.0
 48
0.0
 49
0.0
140
0.0
141
0.0
142
1.0
143
1.0
 70
0
 72
1
 73
0
 74
5
  7

 75
16
 76
0
 77
2
 78
300
147
1.0
148
0.0
149
0.0
100
AcDbLayout
  1
Layout1
 70
1
 71
1
 10
0.0
 20
0.0
 11
420.0
 21
297.0
 12
0.0
 22
0.0
 32
0.0
 14
1e+20
 24
1e+20
 34
1e+20
 15
-1e+20
 25
-1e+20
 35
-1e+20
146
0.0
 13
0.0
 23
0.0
 33
0.0
 16
1.0
 26
0.0
 36
0.0
 17
0.0
 27
1.0
 37
0.0
 76
1
330
1B
  0
MATERIAL
  5
1F
102
{ACAD_REACTORS
330
E
102
}
330
E
100
AcDbMaterial
  1
ByBlock
  2

 70
0
 40
1.0
 71
1
 41
1.0
 91
-1023410177
 42
1.0
 72
1
  3

 73
1
 74
1
 75
1
 44
0.5
 73
0
 45
1.0
 46
1.0
 77
1
  4

 78
1
 79
1
170
1
 48
1.0
171
1
  6

172
1
173
1
174
1
140
1.0
141
1.0
175
1
  7

176
1
177
1
178
1
143
1.0
179
1
  8

270
1
271
1
272
1
145
1.0
146
1.0
273
1
  9

274
1
275
1
276
1
 42
1.0
 72
1
  3

 73
1
 74
1
 75
1
 94
63
  0
MATERIAL
  5
20
102
{ACAD_REACTORS
330
E
102
}
330
E
100
AcDbMaterial
  1
ByLayer
  2

 70
0
 40
1.0
 71
1
 41
1.0
 91
-1023410177
 42
1.0
 72
1
  3

 73
1
 74
1
 75
1
 44
0.5
 73
0
 45
1.0
 46
1.0
 77
1
  4

 78
1
 79
1
170
1
 48
1.0
171
1
  6

172
1
173
1
174
1
140
1.0
141
1.0
175
1
  7

176
1
177
1
178
1
143
1.0
179
1
  8

270
1
271
1
272
1
145
1.0
146
1.0
273
1
  9

274
1
275
1
276
1
 42
1.0
 72
1
  3

 73
1
 74
1
 75
1
 94
63
  0
MATERIAL
  5
21
102
{ACAD_REACTORS
330
E
102
}
330
E
100
AcDbMaterial
  1
Global
  2

 70
0
 40
1.0
 71
1
 41
1.0
 91
-1023410177
 42
1.0
 72
1
  3

 73
1
 74
1
 75
1
 44
0.5
 73
0
 45
1.0
 46
1.0
 77
1
  4

 78
1
 79
1
170
1
 48
1.0
171
1
  6

172
1
173
1
174
1
140
1.0
141
1.0
175
1
  7

176
1
177
1
178
1
143
1.0
179
1
  8

270
1
271
1
272
1
145
1.0
146
1.0
273
1
  9

274
1
275
1
276
1
 42
1.0
 72
1
  3

 73
1
 74
1
 75
1
 94
63
  0
MLINESTYLE
  5
22
102
{ACAD_REACTORS
330
10
102
}
330
10
100
AcDbMlineStyle
  2
Standard
 70
0
  3

 62
256
 51
90.0
 52
90.0
 71
2
 49
0.5
 62
256
  6
BYLAYER
 49
-0.5
 62
256
  6
BYLAYER
  0
MLEADERSTYLE
  5
2C
102
{ACAD_REACTORS
330
F
102
}
330
F
100
AcDbMLeaderStyle
179
2
170
2
171
1
172
0
 90
2
 40
0.0
 41
0.0
173
1
 91
-1056964608
 92
-2
290
1
 42
2.0
291
1
 43
8.0
  3
Standard
 44
4.0
300

342
29
174
1
175
1
176
0
178
1
 93
-1056964608
 45
4.0
292
0
297
0
 46
4.0
 94
-1056964608
 47
1.0
 49
1.0
140
1.0
294
1
141
0.0
177
0
142
1.0
295
0
296
0
143
3.75
271
0
272
9
273
9
  0
DICTIONARY
  5
2D
330
A
100
AcDbDictionary
280
1
281
1
  3
CREATED_BY_EZDXF
350
2E
  3
WRITTEN_BY_EZDXF
350
62
  0
DICTIONARYVAR
  5
2E
330
2D
100
DictionaryVariables
280
0
  1
1.4.4 @ 2026-09-08T14:11:35.565234+00:00
  0
DICTIONARYVAR
  5
62
330
2D
100
DictionaryVariables
280
0
  1
1.4.4 @ 2026-09-08T14:11:35.613686+00:00
  0
ENDSEC
  0
EOF
